<?xml version="1.0" encoding="utf-8"?>
<svg transform="scale(1, -1)" version="1.1" xmlns="http://www.w3.org/2000/svg" xmlns:xlink="http://www.w3.org/1999/xlink" x="0px" y="0px" viewBox="0 0 1000 1000" enable-background="new 0 0 1000 1000" xml:space="preserve">
<path d="M974.4,376.8c-113.2,0-226.4,0-339.7,0c-3.7,0-7.3,0-11,0C589.9,273,556.3,169.3,522.5,65.5c-2.1-6.4-4.2-12.9-6.3-19.4c-0.4-5.3-3.8-9.1-8.2-11.3c-0.7-0.4-1.4-0.7-2.1-1c-0.9-0.3-1.9-0.5-2.9-0.7c-1-0.2-2-0.3-3-0.3c-1,0-2,0.1-3,0.3c-1,0.2-1.9,0.4-2.9,0.7c-0.7,0.3-1.4,0.6-2.1,1c-4.4,2.2-7.9,6-8.3,11.3C449,153.1,414.2,260.1,379.5,367c-1.1,3.2-2.1,6.5-3.2,9.8c-109.4,0-218.7,0-328,0c-7.6,0-15.1,0-22.7,0c-17.2,0-20.5,21.1-8.2,30.1C109,473.4,200.6,540,292.3,606.5c2.5,1.8,5.1,3.7,7.6,5.5C266,716.3,232.1,820.5,198.2,924.8c-2.4,7.2-4.7,14.4-7,21.6c-4.2,12.8,12.1,26.6,23.7,18.2c91.6-66.6,183.2-133.1,274.9-199.7c3.4-2.5,6.8-5,10.3-7.4c88.9,64.6,177.8,129.2,266.7,193.8c6.2,4.4,12.3,8.9,18.4,13.4c11.6,8.4,27.9-5.4,23.7-18.2c-35-107.7-70-215.4-105-323.1c-1.2-3.7-2.4-7.5-3.6-11.2c88-64,176-127.9,264.1-191.9c6.1-4.4,12.2-8.9,18.4-13.4C994.9,397.9,991.6,376.8,974.4,376.8z M924.9,409c-77.8,56.5-155.6,113.1-233.5,169.6c-0.6,0.4-1.2,0.9-1.8,1.3c-18.5-57-37-113.9-55.6-170.9C731,409,828,409,924.9,409z M327.2,632c48.5,35.2,97,70.4,145.4,105.7c-78.4,57-156.9,113.9-235.3,170.9C267.3,816.4,297.3,724.2,327.2,632z M500,717.8c-54.1-39.3-108.2-78.6-162.3-117.9c20.7-63.6,41.3-127.2,62-190.8c66.8,0,133.7,0,200.6,0c20.7,63.6,41.4,127.2,62,190.8C608.2,639.1,554.1,678.5,500,717.8z M589.4,375.6c0.1,0.4,0.3,0.8,0.4,1.2c-59.9,0-119.7,0-179.6,0c29.9-92.1,59.9-184.3,89.8-276.4C529.8,192.1,559.6,283.8,589.4,375.6z M75.1,409c96.7,0,193.5,0,290.2,0c0.2,0,0.3,0,0.5,0c-18.5,57-37,113.9-55.5,170.9C231.8,522.9,153.5,466,75.1,409z M762.6,908.6c-78.4-57-156.9-114-235.3-171c48.5-35.2,96.9-70.4,145.4-105.7C702.7,724.1,732.6,816.4,762.6,908.6z"/>
</svg>